<mxfile host="app.diagrams.net" agent="Mozilla/5.0 (X11; Linux x86_64) AppleWebKit/537.36 (KHTML, like Gecko) Chrome/130.0.0.0 Safari/537.36" version="26.1.0">
  <diagram name="Страница — 1" id="JB-lgBc1nUyG6yqOw_KO">
    <mxGraphModel dx="1770" dy="520" grid="1" gridSize="10" guides="1" tooltips="1" connect="1" arrows="1" fold="1" page="1" pageScale="1" pageWidth="827" pageHeight="1169" math="0" shadow="0">
      <root>
        <mxCell id="0" />
        <mxCell id="1" parent="0" />
        <mxCell id="iWBvAHfWPfGmq18BjQCu-10" value="" style="ellipse;whiteSpace=wrap;html=1;fillColor=light-dark(#FFFFFF,var(--ge-dark-color, #121212));dashed=1;" vertex="1" parent="1">
          <mxGeometry x="470" y="910" width="420" height="300" as="geometry" />
        </mxCell>
        <mxCell id="iWBvAHfWPfGmq18BjQCu-9" value="" style="ellipse;whiteSpace=wrap;html=1;fillColor=light-dark(#FFFFFF,var(--ge-dark-color, #121212));dashed=1;" vertex="1" parent="1">
          <mxGeometry x="10" y="910" width="420" height="300" as="geometry" />
        </mxCell>
        <mxCell id="iWBvAHfWPfGmq18BjQCu-11" value="" style="ellipse;whiteSpace=wrap;html=1;fillColor=light-dark(#FFFFFF,var(--ge-dark-color, #121212));dashed=1;opacity=40;" vertex="1" parent="1">
          <mxGeometry x="-50" y="1040" width="220" height="220" as="geometry" />
        </mxCell>
        <mxCell id="edKSUr5zJjhnN5w_AZRs-10" style="edgeStyle=orthogonalEdgeStyle;rounded=0;orthogonalLoop=1;jettySize=auto;html=1;exitX=0.5;exitY=1;exitDx=0;exitDy=0;entryX=0;entryY=0.5;entryDx=0;entryDy=0;" parent="1" source="edKSUr5zJjhnN5w_AZRs-1" target="edKSUr5zJjhnN5w_AZRs-2" edge="1">
          <mxGeometry relative="1" as="geometry">
            <Array as="points">
              <mxPoint x="100" y="160" />
              <mxPoint x="20" y="160" />
              <mxPoint x="20" y="220" />
            </Array>
          </mxGeometry>
        </mxCell>
        <mxCell id="edKSUr5zJjhnN5w_AZRs-11" style="edgeStyle=orthogonalEdgeStyle;rounded=0;orthogonalLoop=1;jettySize=auto;html=1;exitX=0.5;exitY=1;exitDx=0;exitDy=0;entryX=0;entryY=0.5;entryDx=0;entryDy=0;" parent="1" source="edKSUr5zJjhnN5w_AZRs-1" target="edKSUr5zJjhnN5w_AZRs-3" edge="1">
          <mxGeometry relative="1" as="geometry">
            <Array as="points">
              <mxPoint x="100" y="160" />
              <mxPoint x="20" y="160" />
              <mxPoint x="20" y="290" />
            </Array>
          </mxGeometry>
        </mxCell>
        <mxCell id="edKSUr5zJjhnN5w_AZRs-12" style="edgeStyle=orthogonalEdgeStyle;rounded=0;orthogonalLoop=1;jettySize=auto;html=1;exitX=0.5;exitY=1;exitDx=0;exitDy=0;entryX=0;entryY=0.5;entryDx=0;entryDy=0;" parent="1" source="edKSUr5zJjhnN5w_AZRs-1" target="edKSUr5zJjhnN5w_AZRs-4" edge="1">
          <mxGeometry relative="1" as="geometry">
            <Array as="points">
              <mxPoint x="100" y="160" />
              <mxPoint x="20" y="160" />
              <mxPoint x="20" y="360" />
            </Array>
          </mxGeometry>
        </mxCell>
        <mxCell id="edKSUr5zJjhnN5w_AZRs-13" style="edgeStyle=orthogonalEdgeStyle;rounded=0;orthogonalLoop=1;jettySize=auto;html=1;exitX=0.5;exitY=1;exitDx=0;exitDy=0;entryX=0;entryY=0.5;entryDx=0;entryDy=0;" parent="1" source="edKSUr5zJjhnN5w_AZRs-1" target="edKSUr5zJjhnN5w_AZRs-5" edge="1">
          <mxGeometry relative="1" as="geometry">
            <Array as="points">
              <mxPoint x="100" y="160" />
              <mxPoint x="20" y="160" />
              <mxPoint x="20" y="430" />
            </Array>
          </mxGeometry>
        </mxCell>
        <mxCell id="edKSUr5zJjhnN5w_AZRs-14" style="edgeStyle=orthogonalEdgeStyle;rounded=0;orthogonalLoop=1;jettySize=auto;html=1;exitX=0.5;exitY=1;exitDx=0;exitDy=0;entryX=0;entryY=0.5;entryDx=0;entryDy=0;" parent="1" source="edKSUr5zJjhnN5w_AZRs-1" target="edKSUr5zJjhnN5w_AZRs-7" edge="1">
          <mxGeometry relative="1" as="geometry">
            <Array as="points">
              <mxPoint x="100" y="160" />
              <mxPoint x="20" y="160" />
              <mxPoint x="20" y="500" />
            </Array>
          </mxGeometry>
        </mxCell>
        <mxCell id="edKSUr5zJjhnN5w_AZRs-15" style="edgeStyle=orthogonalEdgeStyle;rounded=0;orthogonalLoop=1;jettySize=auto;html=1;exitX=0.5;exitY=1;exitDx=0;exitDy=0;entryX=0;entryY=0.5;entryDx=0;entryDy=0;" parent="1" source="edKSUr5zJjhnN5w_AZRs-1" target="edKSUr5zJjhnN5w_AZRs-8" edge="1">
          <mxGeometry relative="1" as="geometry">
            <Array as="points">
              <mxPoint x="100" y="160" />
              <mxPoint x="20" y="160" />
              <mxPoint x="20" y="570" />
            </Array>
          </mxGeometry>
        </mxCell>
        <mxCell id="edKSUr5zJjhnN5w_AZRs-17" style="edgeStyle=orthogonalEdgeStyle;rounded=0;orthogonalLoop=1;jettySize=auto;html=1;exitX=0.5;exitY=1;exitDx=0;exitDy=0;entryX=0;entryY=0.5;entryDx=0;entryDy=0;" parent="1" source="edKSUr5zJjhnN5w_AZRs-1" target="edKSUr5zJjhnN5w_AZRs-9" edge="1">
          <mxGeometry relative="1" as="geometry">
            <Array as="points">
              <mxPoint x="100" y="160" />
              <mxPoint x="20" y="160" />
              <mxPoint x="20" y="640" />
            </Array>
          </mxGeometry>
        </mxCell>
        <mxCell id="edKSUr5zJjhnN5w_AZRs-1" value="SDK" style="ellipse;whiteSpace=wrap;html=1;" parent="1" vertex="1">
          <mxGeometry x="40" y="40" width="120" height="80" as="geometry" />
        </mxCell>
        <mxCell id="edKSUr5zJjhnN5w_AZRs-2" value="plugin" style="rounded=1;whiteSpace=wrap;html=1;" parent="1" vertex="1">
          <mxGeometry x="40" y="190" width="120" height="60" as="geometry" />
        </mxCell>
        <mxCell id="edKSUr5zJjhnN5w_AZRs-23" style="edgeStyle=orthogonalEdgeStyle;rounded=0;orthogonalLoop=1;jettySize=auto;html=1;exitX=1;exitY=0.5;exitDx=0;exitDy=0;entryX=0;entryY=0.5;entryDx=0;entryDy=0;" parent="1" source="edKSUr5zJjhnN5w_AZRs-3" target="edKSUr5zJjhnN5w_AZRs-19" edge="1">
          <mxGeometry relative="1" as="geometry" />
        </mxCell>
        <mxCell id="edKSUr5zJjhnN5w_AZRs-24" style="edgeStyle=orthogonalEdgeStyle;rounded=0;orthogonalLoop=1;jettySize=auto;html=1;exitX=1;exitY=0.5;exitDx=0;exitDy=0;entryX=0;entryY=0.5;entryDx=0;entryDy=0;" parent="1" source="edKSUr5zJjhnN5w_AZRs-3" target="edKSUr5zJjhnN5w_AZRs-18" edge="1">
          <mxGeometry relative="1" as="geometry" />
        </mxCell>
        <mxCell id="edKSUr5zJjhnN5w_AZRs-25" style="edgeStyle=orthogonalEdgeStyle;rounded=0;orthogonalLoop=1;jettySize=auto;html=1;exitX=1;exitY=0.5;exitDx=0;exitDy=0;entryX=0;entryY=0.5;entryDx=0;entryDy=0;" parent="1" source="edKSUr5zJjhnN5w_AZRs-3" target="edKSUr5zJjhnN5w_AZRs-20" edge="1">
          <mxGeometry relative="1" as="geometry" />
        </mxCell>
        <mxCell id="edKSUr5zJjhnN5w_AZRs-3" value="transport" style="rounded=1;whiteSpace=wrap;html=1;" parent="1" vertex="1">
          <mxGeometry x="40" y="260" width="120" height="60" as="geometry" />
        </mxCell>
        <mxCell id="edKSUr5zJjhnN5w_AZRs-34" style="edgeStyle=orthogonalEdgeStyle;rounded=0;orthogonalLoop=1;jettySize=auto;html=1;exitX=1;exitY=0.5;exitDx=0;exitDy=0;entryX=0;entryY=0.5;entryDx=0;entryDy=0;dashed=1;" parent="1" source="edKSUr5zJjhnN5w_AZRs-4" target="edKSUr5zJjhnN5w_AZRs-33" edge="1">
          <mxGeometry relative="1" as="geometry" />
        </mxCell>
        <mxCell id="edKSUr5zJjhnN5w_AZRs-4" value="log" style="rounded=1;whiteSpace=wrap;html=1;" parent="1" vertex="1">
          <mxGeometry x="40" y="330" width="120" height="60" as="geometry" />
        </mxCell>
        <mxCell id="edKSUr5zJjhnN5w_AZRs-5" value="&lt;div&gt;[feature]&lt;/div&gt;sql" style="rounded=1;whiteSpace=wrap;html=1;" parent="1" vertex="1">
          <mxGeometry x="40" y="400" width="120" height="60" as="geometry" />
        </mxCell>
        <mxCell id="edKSUr5zJjhnN5w_AZRs-7" value="picobox" style="rounded=1;whiteSpace=wrap;html=1;" parent="1" vertex="1">
          <mxGeometry x="40" y="470" width="120" height="60" as="geometry" />
        </mxCell>
        <mxCell id="edKSUr5zJjhnN5w_AZRs-29" style="edgeStyle=orthogonalEdgeStyle;rounded=0;orthogonalLoop=1;jettySize=auto;html=1;exitX=1;exitY=0.5;exitDx=0;exitDy=0;entryX=0;entryY=0.5;entryDx=0;entryDy=0;dashed=1;" parent="1" source="edKSUr5zJjhnN5w_AZRs-8" target="edKSUr5zJjhnN5w_AZRs-28" edge="1">
          <mxGeometry relative="1" as="geometry" />
        </mxCell>
        <mxCell id="edKSUr5zJjhnN5w_AZRs-8" value="tokio" style="rounded=1;whiteSpace=wrap;html=1;" parent="1" vertex="1">
          <mxGeometry x="40" y="540" width="120" height="60" as="geometry" />
        </mxCell>
        <mxCell id="edKSUr5zJjhnN5w_AZRs-31" style="edgeStyle=orthogonalEdgeStyle;rounded=0;orthogonalLoop=1;jettySize=auto;html=1;exitX=1;exitY=0.5;exitDx=0;exitDy=0;entryX=0;entryY=0.5;entryDx=0;entryDy=0;dashed=1;" parent="1" source="edKSUr5zJjhnN5w_AZRs-9" target="edKSUr5zJjhnN5w_AZRs-30" edge="1">
          <mxGeometry relative="1" as="geometry" />
        </mxCell>
        <mxCell id="edKSUr5zJjhnN5w_AZRs-9" value="system" style="rounded=1;whiteSpace=wrap;html=1;" parent="1" vertex="1">
          <mxGeometry x="40" y="610" width="120" height="60" as="geometry" />
        </mxCell>
        <mxCell id="edKSUr5zJjhnN5w_AZRs-18" value="http" style="rounded=1;whiteSpace=wrap;html=1;" parent="1" vertex="1">
          <mxGeometry x="250" y="190" width="120" height="60" as="geometry" />
        </mxCell>
        <mxCell id="edKSUr5zJjhnN5w_AZRs-19" value="rpc" style="rounded=1;whiteSpace=wrap;html=1;" parent="1" vertex="1">
          <mxGeometry x="250" y="260" width="120" height="60" as="geometry" />
        </mxCell>
        <mxCell id="edKSUr5zJjhnN5w_AZRs-26" style="edgeStyle=orthogonalEdgeStyle;rounded=0;orthogonalLoop=1;jettySize=auto;html=1;exitX=1;exitY=0.5;exitDx=0;exitDy=0;entryX=0;entryY=0.5;entryDx=0;entryDy=0;" parent="1" source="edKSUr5zJjhnN5w_AZRs-20" target="edKSUr5zJjhnN5w_AZRs-21" edge="1">
          <mxGeometry relative="1" as="geometry" />
        </mxCell>
        <mxCell id="edKSUr5zJjhnN5w_AZRs-27" style="edgeStyle=orthogonalEdgeStyle;rounded=0;orthogonalLoop=1;jettySize=auto;html=1;exitX=1;exitY=0.5;exitDx=0;exitDy=0;entryX=0;entryY=0.5;entryDx=0;entryDy=0;" parent="1" source="edKSUr5zJjhnN5w_AZRs-20" target="edKSUr5zJjhnN5w_AZRs-22" edge="1">
          <mxGeometry relative="1" as="geometry" />
        </mxCell>
        <mxCell id="edKSUr5zJjhnN5w_AZRs-20" value="&lt;div&gt;[feature]&lt;/div&gt;middlewares" style="rounded=1;whiteSpace=wrap;html=1;" parent="1" vertex="1">
          <mxGeometry x="250" y="330" width="120" height="60" as="geometry" />
        </mxCell>
        <mxCell id="edKSUr5zJjhnN5w_AZRs-21" value="http" style="rounded=1;whiteSpace=wrap;html=1;" parent="1" vertex="1">
          <mxGeometry x="400" y="290" width="120" height="60" as="geometry" />
        </mxCell>
        <mxCell id="edKSUr5zJjhnN5w_AZRs-22" value="rpc" style="rounded=1;whiteSpace=wrap;html=1;" parent="1" vertex="1">
          <mxGeometry x="400" y="370" width="120" height="60" as="geometry" />
        </mxCell>
        <mxCell id="edKSUr5zJjhnN5w_AZRs-28" value="tros" style="rounded=1;whiteSpace=wrap;html=1;dashed=1;" parent="1" vertex="1">
          <mxGeometry x="220" y="540" width="120" height="60" as="geometry" />
        </mxCell>
        <mxCell id="edKSUr5zJjhnN5w_AZRs-30" value="tarantool module" style="rounded=1;whiteSpace=wrap;html=1;dashed=1;" parent="1" vertex="1">
          <mxGeometry x="220" y="610" width="120" height="60" as="geometry" />
        </mxCell>
        <mxCell id="edKSUr5zJjhnN5w_AZRs-33" value="tarolog" style="rounded=1;whiteSpace=wrap;html=1;dashed=1;" parent="1" vertex="1">
          <mxGeometry x="220" y="410" width="120" height="60" as="geometry" />
        </mxCell>
        <mxCell id="iWBvAHfWPfGmq18BjQCu-1" value="Dir 1" style="ellipse;whiteSpace=wrap;html=1;" vertex="1" parent="1">
          <mxGeometry x="150" y="950" width="120" height="80" as="geometry" />
        </mxCell>
        <mxCell id="iWBvAHfWPfGmq18BjQCu-2" value="Dir 2" style="ellipse;whiteSpace=wrap;html=1;" vertex="1" parent="1">
          <mxGeometry x="650" y="950" width="120" height="80" as="geometry" />
        </mxCell>
        <mxCell id="iWBvAHfWPfGmq18BjQCu-3" value="Dir 1 1" style="ellipse;whiteSpace=wrap;html=1;" vertex="1" parent="1">
          <mxGeometry x="30" y="1060" width="120" height="80" as="geometry" />
        </mxCell>
        <mxCell id="iWBvAHfWPfGmq18BjQCu-4" value="File 1 2" style="ellipse;whiteSpace=wrap;html=1;" vertex="1" parent="1">
          <mxGeometry x="250" y="1030" width="120" height="80" as="geometry" />
        </mxCell>
        <mxCell id="iWBvAHfWPfGmq18BjQCu-5" value="File 1 3" style="ellipse;whiteSpace=wrap;html=1;" vertex="1" parent="1">
          <mxGeometry x="180" y="1110" width="120" height="80" as="geometry" />
        </mxCell>
        <mxCell id="iWBvAHfWPfGmq18BjQCu-6" value="Dir 2 1" style="ellipse;whiteSpace=wrap;html=1;" vertex="1" parent="1">
          <mxGeometry x="550" y="1030" width="120" height="80" as="geometry" />
        </mxCell>
        <mxCell id="iWBvAHfWPfGmq18BjQCu-7" value="Dir 2 2" style="ellipse;whiteSpace=wrap;html=1;" vertex="1" parent="1">
          <mxGeometry x="680" y="1060" width="120" height="80" as="geometry" />
        </mxCell>
        <mxCell id="iWBvAHfWPfGmq18BjQCu-8" value="File 1 1 1" style="ellipse;whiteSpace=wrap;html=1;" vertex="1" parent="1">
          <mxGeometry x="10" y="1169" width="120" height="80" as="geometry" />
        </mxCell>
        <mxCell id="iWBvAHfWPfGmq18BjQCu-25" style="edgeStyle=orthogonalEdgeStyle;rounded=0;orthogonalLoop=1;jettySize=auto;html=1;exitX=0.5;exitY=1;exitDx=0;exitDy=0;" edge="1" parent="1" source="iWBvAHfWPfGmq18BjQCu-12" target="iWBvAHfWPfGmq18BjQCu-13">
          <mxGeometry relative="1" as="geometry" />
        </mxCell>
        <mxCell id="iWBvAHfWPfGmq18BjQCu-26" style="edgeStyle=orthogonalEdgeStyle;rounded=0;orthogonalLoop=1;jettySize=auto;html=1;exitX=0.5;exitY=1;exitDx=0;exitDy=0;entryX=0.5;entryY=0;entryDx=0;entryDy=0;" edge="1" parent="1" source="iWBvAHfWPfGmq18BjQCu-12" target="iWBvAHfWPfGmq18BjQCu-14">
          <mxGeometry relative="1" as="geometry" />
        </mxCell>
        <mxCell id="iWBvAHfWPfGmq18BjQCu-12" value="Root" style="ellipse;whiteSpace=wrap;html=1;" vertex="1" parent="1">
          <mxGeometry x="430" y="1290" width="100" height="40" as="geometry" />
        </mxCell>
        <mxCell id="iWBvAHfWPfGmq18BjQCu-22" style="edgeStyle=orthogonalEdgeStyle;rounded=0;orthogonalLoop=1;jettySize=auto;html=1;exitX=0.5;exitY=1;exitDx=0;exitDy=0;" edge="1" parent="1" source="iWBvAHfWPfGmq18BjQCu-13" target="iWBvAHfWPfGmq18BjQCu-15">
          <mxGeometry relative="1" as="geometry" />
        </mxCell>
        <mxCell id="iWBvAHfWPfGmq18BjQCu-23" style="edgeStyle=orthogonalEdgeStyle;rounded=0;orthogonalLoop=1;jettySize=auto;html=1;exitX=0.5;exitY=1;exitDx=0;exitDy=0;entryX=0.5;entryY=0;entryDx=0;entryDy=0;" edge="1" parent="1" source="iWBvAHfWPfGmq18BjQCu-30" target="iWBvAHfWPfGmq18BjQCu-16">
          <mxGeometry relative="1" as="geometry" />
        </mxCell>
        <mxCell id="iWBvAHfWPfGmq18BjQCu-13" value="Dir 1" style="ellipse;whiteSpace=wrap;html=1;" vertex="1" parent="1">
          <mxGeometry x="260" y="1370" width="100" height="40" as="geometry" />
        </mxCell>
        <mxCell id="iWBvAHfWPfGmq18BjQCu-27" style="edgeStyle=orthogonalEdgeStyle;rounded=0;orthogonalLoop=1;jettySize=auto;html=1;exitX=0.5;exitY=1;exitDx=0;exitDy=0;entryX=0.5;entryY=0;entryDx=0;entryDy=0;" edge="1" parent="1" source="iWBvAHfWPfGmq18BjQCu-14" target="iWBvAHfWPfGmq18BjQCu-18">
          <mxGeometry relative="1" as="geometry" />
        </mxCell>
        <mxCell id="iWBvAHfWPfGmq18BjQCu-28" style="edgeStyle=orthogonalEdgeStyle;rounded=0;orthogonalLoop=1;jettySize=auto;html=1;exitX=0.5;exitY=1;exitDx=0;exitDy=0;entryX=0.5;entryY=0;entryDx=0;entryDy=0;" edge="1" parent="1" source="iWBvAHfWPfGmq18BjQCu-14" target="iWBvAHfWPfGmq18BjQCu-19">
          <mxGeometry relative="1" as="geometry" />
        </mxCell>
        <mxCell id="iWBvAHfWPfGmq18BjQCu-14" value="Dir 2" style="ellipse;whiteSpace=wrap;html=1;" vertex="1" parent="1">
          <mxGeometry x="610" y="1370" width="100" height="40" as="geometry" />
        </mxCell>
        <mxCell id="iWBvAHfWPfGmq18BjQCu-21" style="edgeStyle=orthogonalEdgeStyle;rounded=0;orthogonalLoop=1;jettySize=auto;html=1;exitX=0.5;exitY=1;exitDx=0;exitDy=0;entryX=0.5;entryY=0;entryDx=0;entryDy=0;" edge="1" parent="1" source="iWBvAHfWPfGmq18BjQCu-15" target="iWBvAHfWPfGmq18BjQCu-20">
          <mxGeometry relative="1" as="geometry" />
        </mxCell>
        <mxCell id="iWBvAHfWPfGmq18BjQCu-15" value="Dir 1 1" style="ellipse;whiteSpace=wrap;html=1;" vertex="1" parent="1">
          <mxGeometry x="140" y="1450" width="100" height="40" as="geometry" />
        </mxCell>
        <mxCell id="iWBvAHfWPfGmq18BjQCu-16" value="File 1 2" style="ellipse;whiteSpace=wrap;html=1;" vertex="1" parent="1">
          <mxGeometry x="260" y="1450" width="100" height="40" as="geometry" />
        </mxCell>
        <mxCell id="iWBvAHfWPfGmq18BjQCu-17" value="File 1 3" style="ellipse;whiteSpace=wrap;html=1;" vertex="1" parent="1">
          <mxGeometry x="380" y="1450" width="100" height="40" as="geometry" />
        </mxCell>
        <mxCell id="iWBvAHfWPfGmq18BjQCu-18" value="Dir 2 1" style="ellipse;whiteSpace=wrap;html=1;" vertex="1" parent="1">
          <mxGeometry x="540" y="1450" width="100" height="40" as="geometry" />
        </mxCell>
        <mxCell id="iWBvAHfWPfGmq18BjQCu-19" value="Dir 2 2" style="ellipse;whiteSpace=wrap;html=1;" vertex="1" parent="1">
          <mxGeometry x="690" y="1450" width="100" height="40" as="geometry" />
        </mxCell>
        <mxCell id="iWBvAHfWPfGmq18BjQCu-20" value="File 1 1 1" style="ellipse;whiteSpace=wrap;html=1;" vertex="1" parent="1">
          <mxGeometry x="140" y="1520" width="100" height="40" as="geometry" />
        </mxCell>
        <mxCell id="iWBvAHfWPfGmq18BjQCu-24" style="edgeStyle=orthogonalEdgeStyle;rounded=0;orthogonalLoop=1;jettySize=auto;html=1;exitX=0.5;exitY=1;exitDx=0;exitDy=0;entryX=0.548;entryY=-0.009;entryDx=0;entryDy=0;entryPerimeter=0;" edge="1" parent="1" source="iWBvAHfWPfGmq18BjQCu-13" target="iWBvAHfWPfGmq18BjQCu-17">
          <mxGeometry relative="1" as="geometry" />
        </mxCell>
        <mxCell id="iWBvAHfWPfGmq18BjQCu-29" value="Rem F111" style="ellipse;whiteSpace=wrap;html=1;fillColor=light-dark(#FFFFFF,var(--ge-dark-color, #121212));dashed=1;opacity=40;align=left;" vertex="1" parent="1">
          <mxGeometry x="110" y="1420" width="150" height="180" as="geometry" />
        </mxCell>
        <mxCell id="iWBvAHfWPfGmq18BjQCu-31" value="" style="edgeStyle=orthogonalEdgeStyle;rounded=0;orthogonalLoop=1;jettySize=auto;html=1;exitX=0.5;exitY=1;exitDx=0;exitDy=0;entryX=0.5;entryY=0;entryDx=0;entryDy=0;" edge="1" parent="1" source="iWBvAHfWPfGmq18BjQCu-13" target="iWBvAHfWPfGmq18BjQCu-30">
          <mxGeometry relative="1" as="geometry">
            <mxPoint x="310" y="1410" as="sourcePoint" />
            <mxPoint x="310" y="1450" as="targetPoint" />
          </mxGeometry>
        </mxCell>
        <mxCell id="iWBvAHfWPfGmq18BjQCu-30" value="Rem F12" style="ellipse;whiteSpace=wrap;html=1;fillColor=light-dark(#FFFFFF,var(--ge-dark-color, #121212));dashed=1;opacity=40;align=left;" vertex="1" parent="1">
          <mxGeometry x="235" y="1360" width="150" height="160" as="geometry" />
        </mxCell>
        <mxCell id="iWBvAHfWPfGmq18BjQCu-41" value="" style="ellipse;whiteSpace=wrap;html=1;fillColor=light-dark(#FFFFFF,var(--ge-dark-color, #121212));dashed=1;opacity=40;align=left;rotation=-60;" vertex="1" parent="1">
          <mxGeometry x="314" y="1270" width="99.38" height="290" as="geometry" />
        </mxCell>
      </root>
    </mxGraphModel>
  </diagram>
</mxfile>
